<?xml version="1.0" encoding="UTF-8"?> <svg xmlns="http://www.w3.org/2000/svg" xmlns:xlink="http://www.w3.org/1999/xlink" width="887px" height="522px" viewBox="0 0 887 522"><!-- Generator: Sketch 52.6 (67491) - http://www.bohemiancoding.com/sketch --><title>Mature</title><desc>Created with Sketch.</desc><g id="Page-1" stroke="none" stroke-width="1" fill="none" fill-rule="evenodd"><g id="Everyone_01"><g id="Mature"><g id="Group"><g><g><rect id="Rectangle" fill="#231F20" x="2.6" y="3.1" width="880.4" height="418.3"></rect><path d="M880.4,5.4 L880.4,419.2 L5.1,419.2 L5.1,5.4 L880.4,5.4 Z M885.5,0.8 L880.4,0.8 L5.1,0.8 L0,0.8 L0,5.3 L0,419.1 L0,423.6 L5.1,423.6 L886,423.6 L886,0.8 L885.5,0.8 Z" id="Shape" fill="#FFFFFF" fill-rule="nonzero"></path></g><rect id="Rectangle" fill="#FFFFFF" x="17.9" y="20.1" width="244.2" height="68.6"></rect><rect id="Rectangle" fill="#FFFFFF" x="17.8" y="103.7" width="244.3" height="252.3"></rect><g transform="translate(17.000000, 369.000000)" fill="#FFFFFF"><polygon id="Path" points="0.9 35.3 0.9 1.8 49.9 1.8 49.9 9.6 20.6 9.6 20.6 14.4 45.4 14.4 45.4 22.2 20.6 22.2 20.6 27.4 51 27.4 51 35.3"></polygon><path d="M92.7,11.5 C92.4,10.4 91.3,9.6 89.8,9.2 C88.4,8.8 86.7,8.6 84.7,8.6 C80.4,8.6 78.4,9.3 78.4,10.5 C78.4,15.5 113,12.3 113,24.5 C113,32.3 101.4,36 84.9,36 C69,36 58.7,30.8 58.3,24.8 L77.2,24.8 C77.6,26 78.8,26.9 80.5,27.4 C82.1,27.9 84.2,28.2 86.1,28.2 C91,28.2 94.3,27.3 94.3,25.7 C94.3,20.6 59.7,24.1 59.7,11.3 C59.7,4.2 70.7,0.6 85.8,0.6 C102.5,0.6 110.1,5.3 111.5,11.2 L92.7,11.2 L92.7,11.5 Z" id="Path"></path><path d="M142.6,16.3 L150.3,16.3 C156.4,16.3 159.7,15.4 159.7,13.1 C159.7,10.8 156.4,9.6 151.8,9.6 L142.6,9.6 L142.6,16.3 Z M142.6,23.6 L142.6,35.3 L122.9,35.3 L122.9,1.8 L151.3,1.8 C171.3,1.8 177.9,4.9 177.9,11.4 C177.9,15.3 174.8,18.5 167.8,19.6 C174.1,20.9 178,21.7 178,28.4 C178,32.8 177.7,34.3 180.1,34.3 L180.1,35.3 L160.1,35.3 C159.6,34.6 159.1,32.4 159.1,29.5 C159.1,25.1 157.8,23.7 148.6,23.7 L142.6,23.7 L142.6,23.6 Z" id="Shape" fill-rule="nonzero"></path><path d="M209.7,9.6 L209.7,15.2 L217.9,15.2 C221.8,15.2 224.7,14.2 224.7,12.3 C224.7,9.7 220.8,9.6 216.7,9.6 L209.7,9.6 Z M209.7,21.3 L209.7,27.5 L218.3,27.5 C223.2,27.5 226.8,26.9 226.8,24.4 C226.8,21.5 222.2,21.3 215.9,21.3 L209.7,21.3 Z M190.1,35.3 L190.1,1.8 L218.8,1.8 C232.3,1.8 243.1,3.6 243.1,10.2 C243.1,13.7 239.1,16.2 235.2,17.5 C241.7,18.4 245.2,21.6 245.2,25.2 C245.2,32.7 235,35.3 219.3,35.3 L190.1,35.3 Z" id="Shape" fill-rule="nonzero"></path></g><rect id="Rectangle" fill="#FFFFFF" x="277" y="20" width="588.9" height="384.3"></rect><polygon id="Path" fill="#231F20" points="26.8 166.1 101.7 145.9 144.4 246.5 144.8 246.4 131.9 137.8 206.8 117.6 253.6 293.4 207.9 305.6 174.5 180 174.1 180.1 188.3 310.9 138.9 324.2 86.2 203.8 85.8 203.9 119.2 329.5 73.5 341.8"></polygon><g transform="translate(24.000000, 34.000000)" fill="#231F20"><polygon id="Path" points="0.6 39.7 0.6 0.9 11.6 0.9 16.7 27.3 16.8 27.3 22.2 0.9 33 0.9 33 39.7 26.3 39.7 26.3 9.7 26.2 9.7 19.9 39.7 13.4 39.7 7.4 9.7 7.3 9.7 7.3 39.7 0.6 39.7"></polygon><path d="M36.1,39.7 L45.2,0.9 L54.2,0.9 L63.1,39.7 L55.9,39.7 L54,31.1 L44.6,31.1 L42.7,39.7 L36.1,39.7 Z M49.3,8.4 L49.2,8.4 L46,25.2 L52.5,25.2 L49.3,8.4 Z" id="Shape" fill-rule="nonzero"></path><polygon id="Path" points="83.1 0.9 83.1 7.3 75.5 7.3 75.5 39.7 68.6 39.7 68.6 7.3 61 7.3 61 0.9"></polygon><path d="M108.4,0.9 L108.4,28.5 C108.4,30 108.2,31.4 107.8,32.8 C107.4,34.2 106.8,35.5 105.9,36.6 C105,37.7 103.9,38.7 102.5,39.4 C101.1,40.1 99.3,40.5 97.2,40.5 C93.4,40.5 90.6,39.4 88.8,37.3 C87,35.1 86,32.2 86,28.6 L86,0.9 L92.9,0.9 L92.9,27.9 C92.9,30.3 93.3,32 94,33 C94.8,34 95.8,34.5 97.1,34.5 C98.6,34.5 99.7,33.9 100.4,32.8 C101.1,31.6 101.4,30 101.4,27.8 L101.4,0.8 L108.4,0.8 L108.4,0.9 Z" id="Path"></path><path d="M120.7,39.7 L113.8,39.7 L113.8,0.9 L126.5,0.9 C128.9,0.9 130.7,1.8 132.1,3.5 C133.5,5.2 134.2,7.8 134.2,11.1 C134.2,13.6 133.7,15.7 132.8,17.4 C131.9,19.1 130.3,20.2 128.1,20.6 L128.1,20.7 C128.5,20.8 129,20.9 129.6,21 C130.3,21.1 130.9,21.5 131.6,22 C132.2,22.5 132.8,23.2 133.3,24.2 C133.8,25.2 134,26.5 134,28.3 C134,28.9 134,29.8 134,30.9 C134,32 134,33.2 134.1,34.3 C134.2,35.5 134.2,36.6 134.3,37.6 C134.4,38.6 134.5,39.3 134.7,39.7 L128,39.7 C127.5,38.5 127.3,37.3 127.3,36 C127.3,34.7 127.3,33.4 127.3,32.2 C127.3,31.1 127.3,30 127.3,28.9 C127.3,27.9 127.1,27 126.9,26.2 C126.6,25.4 126.1,24.8 125.4,24.3 C124.7,23.8 123.7,23.6 122.4,23.6 L120.6,23.6 L120.6,39.7 L120.7,39.7 Z M120.7,17.7 L123.8,17.7 C124.5,17.7 125,17.5 125.5,17.2 C125.9,16.8 126.3,16.4 126.6,15.8 C126.9,15.3 127.1,14.6 127.2,13.9 C127.3,13.2 127.4,12.6 127.4,12 C127.4,10.1 127.1,8.8 126.5,8 C125.9,7.2 125,6.8 123.9,6.8 L120.8,6.8 L120.8,17.7 L120.7,17.7 Z" id="Shape" fill-rule="nonzero"></path><polygon id="Path" points="139.2 39.7 139.2 0.9 157.1 0.9 157.1 6.9 146.1 6.9 146.1 16.5 156.3 16.5 156.3 22.5 146.1 22.5 146.1 33.9 157.5 33.9 157.5 39.9 139.2 39.9"></polygon><path d="M171.4,6.7 C172.5,5.9 173.6,5 174.7,4.1 C175.8,3.1 176.7,2 177.5,0.7 L183.6,0.7 L183.6,39.7 L176.7,39.7 L176.7,9.7 C175.9,10.6 175,11.3 174.1,12.1 C173.2,12.8 172.3,13.5 171.3,14.1 L171.3,6.7 L171.4,6.7 Z" id="Path"></path><polygon id="Path" points="207.8 8.1 200 39.7 192.9 39.7 201.6 6.7 190.7 6.7 190.7 0.7 207.7 0.7 207.7 8.1"></polygon><polygon id="Path" points="218.3 8.4 223.4 8.4 223.4 19 231.1 19 231.1 25 223.4 25 223.4 35.6 218.3 35.6 218.3 25 210.6 25 210.6 19 218.3 19"></polygon></g></g><g transform="translate(0.000000, 417.000000)"><rect id="Rectangle" fill="#FFFFFF" x="0.1" y="1.1" width="886" height="103.5"></rect><rect id="Rectangle" fill="#231F20" x="5.5" y="0.8" width="874.9" height="97.7"></rect><rect id="Rectangle" fill="#FFFFFF" x="11.6" y="6.7" width="863" height="85.7"></rect><g transform="translate(52.000000, 24.000000)" fill="#231F20"><rect id="Rectangle" x="0.8" y="1.5" width="4.7" height="35.3"></rect><path d="M13.2,36.8 L13.2,11.3 L17.1,11.3 L17.1,14.9 C19,12.1 21.7,10.7 25.2,10.7 C26.7,10.7 28.2,11 29.4,11.5 C30.7,12.1 31.7,12.8 32.3,13.7 C32.9,14.6 33.4,15.7 33.6,16.9 C33.8,17.7 33.8,19.1 33.8,21.1 L33.8,36.8 L29.5,36.8 L29.5,21.3 C29.5,19.5 29.3,18.2 29,17.3 C28.7,16.4 28.1,15.7 27.2,15.2 C26.3,14.7 25.3,14.4 24.2,14.4 C22.4,14.4 20.8,15 19.4,16.2 C18.1,17.4 17.4,19.6 17.4,22.9 L17.4,36.8 L13.2,36.8 Z" id="Path"></path><rect id="Rectangle" x="38.9" y="21.8" width="13.3" height="4.4"></rect><path d="M74,22.9 L74,18.8 L88.9,18.8 L88.9,31.9 C86.6,33.7 84.2,35.1 81.8,36 C79.4,36.9 76.9,37.4 74.3,37.4 C70.8,37.4 67.7,36.7 64.9,35.2 C62.1,33.7 59.9,31.6 58.5,28.8 C57.1,26 56.3,22.9 56.3,19.4 C56.3,16 57,12.8 58.5,9.8 C60,6.8 62,4.6 64.7,3.2 C67.4,1.8 70.5,1 74,1 C76.5,1 78.9,1.4 80.9,2.2 C83,3 84.6,4.2 85.7,5.7 C86.9,7.2 87.8,9.1 88.4,11.5 L84.2,12.7 C83.7,10.9 83,9.5 82.2,8.5 C81.4,7.5 80.3,6.6 78.8,6 C77.3,5.4 75.7,5.1 73.9,5.1 C71.8,5.1 69.9,5.4 68.4,6.1 C66.8,6.7 65.6,7.6 64.6,8.7 C63.6,9.8 62.9,10.9 62.4,12.2 C61.5,14.4 61.1,16.7 61.1,19.3 C61.1,22.4 61.6,25.1 62.7,27.2 C63.8,29.3 65.4,30.9 67.4,31.9 C69.5,32.9 71.7,33.4 74,33.4 C76,33.4 78,33 79.9,32.2 C81.8,31.4 83.3,30.6 84.3,29.7 L84.3,23.1 L74,23.1 L74,22.9 Z" id="Path"></path><path d="M112,33.6 C110.4,35 108.9,35.9 107.4,36.5 C105.9,37.1 104.3,37.3 102.6,37.3 C99.8,37.3 97.6,36.6 96.1,35.2 C94.6,33.8 93.8,32.1 93.8,29.9 C93.8,28.6 94.1,27.5 94.7,26.5 C95.3,25.5 96,24.6 96.9,24 C97.8,23.4 98.9,22.9 100,22.6 C100.8,22.4 102.1,22.2 103.8,22 C107.3,21.6 109.9,21.1 111.5,20.5 C111.5,19.9 111.5,19.5 111.5,19.4 C111.5,17.6 111.1,16.4 110.3,15.7 C109.2,14.7 107.6,14.2 105.4,14.2 C103.4,14.2 101.9,14.6 100.9,15.3 C99.9,16 99.2,17.3 98.7,19.1 L94.5,18.5 C94.9,16.7 95.5,15.2 96.4,14.1 C97.3,13 98.6,12.1 100.2,11.5 C101.9,10.9 103.8,10.6 106,10.6 C108.2,10.6 110,10.9 111.3,11.4 C112.7,11.9 113.7,12.6 114.3,13.3 C114.9,14.1 115.4,15.1 115.6,16.2 C115.7,16.9 115.8,18.3 115.8,20.2 L115.8,26 C115.8,30 115.9,32.6 116.1,33.6 C116.3,34.7 116.6,35.7 117.2,36.7 L112.7,36.7 C112.4,35.9 112.1,34.8 112,33.6 Z M111.6,24 C110,24.6 107.7,25.2 104.5,25.6 C102.7,25.9 101.5,26.1 100.7,26.5 C100,26.8 99.4,27.3 99,27.9 C98.6,28.5 98.4,29.2 98.4,30 C98.4,31.2 98.8,32.1 99.7,32.9 C100.6,33.7 101.9,34.1 103.5,34.1 C105.2,34.1 106.7,33.7 107.9,33 C109.2,32.3 110.2,31.3 110.8,30 C111.3,29 111.5,27.6 111.5,25.7 L111.5,24 L111.6,24 Z" id="Shape" fill-rule="nonzero"></path><path d="M122.7,36.8 L122.7,11.3 L126.6,11.3 L126.6,14.9 C127.4,13.6 128.5,12.6 129.8,11.9 C131.1,11.1 132.6,10.8 134.3,10.8 C136.2,10.8 137.7,11.2 139,12 C140.2,12.8 141.1,13.9 141.6,15.3 C143.6,12.3 146.2,10.8 149.5,10.8 C152,10.8 154,11.5 155.3,12.9 C156.7,14.3 157.3,16.5 157.3,19.4 L157.3,36.9 L153,36.9 L153,20.8 C153,19.1 152.9,17.8 152.6,17.1 C152.3,16.3 151.8,15.7 151.1,15.3 C150.4,14.8 149.5,14.6 148.5,14.6 C146.7,14.6 145.2,15.2 144,16.4 C142.8,17.6 142.2,19.5 142.2,22.1 L142.2,36.9 L137.9,36.9 L137.9,20.3 C137.9,18.4 137.5,16.9 136.8,16 C136.1,15 134.9,14.6 133.3,14.6 C132.1,14.6 131,14.9 129.9,15.6 C128.9,16.2 128.1,17.2 127.7,18.4 C127.2,19.6 127,21.4 127,23.7 L127,37 L122.7,37 L122.7,36.8 Z" id="Path"></path><path d="M181.2,28.6 L185.7,29.2 C185,31.8 183.7,33.8 181.8,35.3 C179.9,36.7 177.5,37.5 174.5,37.5 C170.8,37.5 167.8,36.3 165.6,34 C163.4,31.7 162.3,28.5 162.3,24.3 C162.3,20 163.4,16.7 165.6,14.3 C167.8,11.9 170.7,10.7 174.2,10.7 C177.6,10.7 180.4,11.9 182.6,14.2 C184.8,16.5 185.8,19.8 185.8,24 L185.8,25.2 L166.8,25.2 C167,28 167.8,30.2 169.2,31.6 C170.6,33.1 172.4,33.8 174.5,33.8 C176.1,33.8 177.4,33.4 178.6,32.5 C179.7,31.7 180.5,30.4 181.2,28.6 Z M167,21.6 L181.3,21.6 C181.1,19.4 180.6,17.8 179.7,16.8 C178.3,15.1 176.5,14.3 174.3,14.3 C172.3,14.3 170.6,15 169.3,16.3 C167.9,17.5 167.1,19.3 167,21.6 Z" id="Shape" fill-rule="nonzero"></path><path d="M205.3,36.8 L205.3,1.5 L218.6,1.5 C220.9,1.5 222.7,1.6 224,1.8 C225.7,2.1 227.2,2.6 228.4,3.4 C229.6,4.2 230.5,5.3 231.2,6.8 C231.9,8.3 232.3,9.9 232.3,11.6 C232.3,14.6 231.3,17.1 229.4,19.2 C227.5,21.3 224,22.3 219.1,22.3 L210.1,22.3 L210.1,36.6 L205.3,36.6 L205.3,36.8 Z M210,18.3 L219.1,18.3 C222.1,18.3 224.3,17.7 225.5,16.6 C226.8,15.5 227.4,13.9 227.4,11.9 C227.4,10.4 227,9.2 226.3,8.1 C225.6,7.1 224.6,6.4 223.4,6 C222.6,5.8 221.2,5.7 219,5.7 L210,5.7 L210,18.3 Z" id="Shape" fill-rule="nonzero"></path><path d="M254.4,36.8 L254.4,33 C252.4,35.9 249.7,37.3 246.3,37.3 C244.8,37.3 243.4,37 242.1,36.4 C240.8,35.8 239.8,35.1 239.2,34.2 C238.6,33.3 238.1,32.3 237.9,31 C237.7,30.1 237.6,28.8 237.6,27 L237.6,11.2 L241.9,11.2 L241.9,25.4 C241.9,27.7 242,29.2 242.2,30 C242.5,31.1 243,32 243.9,32.7 C244.8,33.3 245.9,33.7 247.2,33.7 C248.5,33.7 249.7,33.4 250.9,32.7 C252,32 252.8,31.1 253.3,30 C253.8,28.9 254,27.2 254,25 L254,11.3 L258.3,11.3 L258.3,36.8 L254.4,36.8 Z" id="Path"></path><path d="M265,36.8 L265,11.3 L268.9,11.3 L268.9,15.2 C269.9,13.4 270.8,12.2 271.7,11.6 C272.5,11 273.5,10.7 274.5,10.7 C276,10.7 277.4,11.2 278.9,12.1 L277.4,16.1 C276.3,15.5 275.3,15.2 274.2,15.2 C273.3,15.2 272.4,15.5 271.7,16.1 C270.9,16.7 270.4,17.5 270.1,18.5 C269.6,20 269.4,21.7 269.4,23.6 L269.4,37 L265,37 L265,36.8 Z" id="Path"></path><path d="M298.1,27.4 L302.4,28 C301.9,30.9 300.7,33.2 298.8,34.9 C296.9,36.6 294.5,37.4 291.7,37.4 C288.2,37.4 285.4,36.3 283.3,34 C281.2,31.7 280.1,28.4 280.1,24.2 C280.1,21.4 280.6,19 281.5,17 C282.4,14.9 283.8,13.4 285.7,12.3 C287.6,11.3 289.6,10.7 291.8,10.7 C294.6,10.7 296.8,11.4 298.6,12.8 C300.4,14.2 301.5,16.2 302,18.8 L297.8,19.4 C297.4,17.7 296.7,16.4 295.7,15.5 C294.7,14.6 293.5,14.2 292,14.2 C289.8,14.2 288,15 286.7,16.5 C285.3,18.1 284.7,20.5 284.7,23.9 C284.7,27.3 285.4,29.8 286.7,31.4 C288,33 289.7,33.7 291.8,33.7 C293.5,33.7 294.9,33.2 296.1,32.1 C297.1,31.2 297.8,29.6 298.1,27.4 Z" id="Path"></path><path d="M306.1,36.8 L306.1,1.5 L310.4,1.5 L310.4,14.2 C312.4,11.9 315,10.7 318,10.7 C319.9,10.7 321.5,11.1 322.9,11.8 C324.3,12.5 325.3,13.6 325.9,14.9 C326.5,16.2 326.8,18.1 326.8,20.6 L326.8,36.8 L322.5,36.8 L322.5,20.6 C322.5,18.4 322,16.9 321.1,15.9 C320.2,14.9 318.8,14.4 317.1,14.4 C315.8,14.4 314.6,14.7 313.5,15.4 C312.4,16.1 311.6,17 311.1,18.1 C310.6,19.2 310.4,20.8 310.4,22.8 L310.4,36.8 L306.1,36.8 Z" id="Path"></path><path d="M350.1,33.6 C348.5,35 347,35.9 345.5,36.5 C344,37.1 342.4,37.3 340.7,37.3 C337.9,37.3 335.7,36.6 334.2,35.2 C332.7,33.8 331.9,32.1 331.9,29.9 C331.9,28.6 332.2,27.5 332.8,26.5 C333.4,25.5 334.1,24.6 335,24 C335.9,23.4 337,22.9 338.1,22.6 C338.9,22.4 340.2,22.2 341.9,22 C345.4,21.6 348,21.1 349.6,20.5 C349.6,19.9 349.6,19.5 349.6,19.4 C349.6,17.6 349.2,16.4 348.4,15.7 C347.3,14.7 345.7,14.2 343.5,14.2 C341.5,14.2 340,14.6 339,15.3 C338,16 337.3,17.3 336.8,19.1 L332.6,18.5 C333,16.7 333.6,15.2 334.5,14.1 C335.4,13 336.7,12.1 338.3,11.5 C340,10.9 341.9,10.6 344.1,10.6 C346.3,10.6 348.1,10.9 349.4,11.4 C350.8,11.9 351.8,12.6 352.4,13.3 C353,14.1 353.5,15.1 353.7,16.2 C353.8,16.9 353.9,18.3 353.9,20.2 L353.9,26 C353.9,30 354,32.6 354.2,33.6 C354.4,34.7 354.7,35.7 355.3,36.7 L351,36.7 C350.6,35.9 350.3,34.8 350.1,33.6 Z M349.8,24 C348.2,24.6 345.9,25.2 342.7,25.6 C340.9,25.9 339.7,26.1 338.9,26.5 C338.2,26.8 337.6,27.3 337.2,27.9 C336.8,28.5 336.6,29.2 336.6,30 C336.6,31.2 337,32.1 337.9,32.9 C338.8,33.7 340.1,34.1 341.7,34.1 C343.4,34.1 344.9,33.7 346.1,33 C347.4,32.3 348.4,31.3 349,30 C349.5,29 349.7,27.6 349.7,25.7 L349.7,24 L349.8,24 Z" id="Shape" fill-rule="nonzero"></path><path d="M359.1,29.2 L363.4,28.5 C363.6,30.2 364.3,31.5 365.4,32.4 C366.5,33.3 368,33.8 370,33.8 C372,33.8 373.5,33.4 374.4,32.6 C375.4,31.8 375.8,30.8 375.8,29.7 C375.8,28.7 375.4,28 374.5,27.4 C373.9,27 372.4,26.5 370.1,25.9 C366.9,25.1 364.7,24.4 363.5,23.8 C362.3,23.2 361.3,22.4 360.7,21.4 C360.1,20.4 359.8,19.2 359.8,18 C359.8,16.9 360.1,15.8 360.6,14.8 C361.1,13.8 361.8,13 362.7,12.4 C363.4,11.9 364.3,11.5 365.5,11.1 C366.7,10.8 367.9,10.6 369.2,10.6 C371.2,10.6 373,10.9 374.5,11.5 C376,12.1 377.1,12.9 377.9,13.8 C378.6,14.8 379.1,16.1 379.4,17.8 L375.2,18.4 C375,17.1 374.4,16.1 373.5,15.3 C372.6,14.6 371.3,14.2 369.6,14.2 C367.6,14.2 366.2,14.5 365.3,15.2 C364.5,15.9 364,16.6 364,17.5 C364,18.1 364.2,18.6 364.5,19 C364.9,19.5 365.4,19.9 366.2,20.2 C366.6,20.4 367.9,20.7 370,21.3 C373.1,22.1 375.2,22.8 376.4,23.3 C377.6,23.8 378.6,24.6 379.3,25.6 C380,26.6 380.3,27.8 380.3,29.3 C380.3,30.7 379.9,32.1 379,33.4 C378.2,34.7 376.9,35.7 375.4,36.4 C373.8,37.1 372,37.4 370,37.4 C366.7,37.4 364.1,36.7 362.4,35.3 C360.7,33.9 359.6,31.9 359.1,29.2 Z" id="Path"></path><path d="M403,28.6 L407.5,29.2 C406.8,31.8 405.5,33.8 403.6,35.3 C401.7,36.8 399.3,37.5 396.3,37.5 C392.6,37.5 389.6,36.3 387.4,34 C385.2,31.7 384.1,28.5 384.1,24.3 C384.1,20 385.2,16.7 387.4,14.3 C389.6,11.9 392.5,10.7 396,10.7 C399.4,10.7 402.2,11.9 404.4,14.2 C406.6,16.5 407.6,19.8 407.6,24 L407.6,25.2 L388.6,25.2 C388.8,28 389.6,30.2 391,31.6 C392.4,33.1 394.2,33.8 396.3,33.8 C397.9,33.8 399.2,33.4 400.4,32.5 C401.4,31.7 402.3,30.4 403,28.6 Z M388.8,21.6 L403,21.6 C402.8,19.4 402.3,17.8 401.4,16.8 C400,15.1 398.2,14.3 396,14.3 C394,14.3 392.3,15 391,16.3 C389.7,17.5 388.9,19.3 388.8,21.6 Z" id="Shape" fill-rule="nonzero"></path><path d="M411.2,29.2 L415.5,28.5 C415.7,30.2 416.4,31.5 417.5,32.4 C418.6,33.3 420.1,33.8 422.1,33.8 C424.1,33.8 425.6,33.4 426.5,32.6 C427.5,31.8 427.9,30.8 427.9,29.7 C427.9,28.7 427.5,28 426.6,27.4 C426,27 424.5,26.5 422.2,25.9 C419,25.1 416.8,24.4 415.6,23.8 C414.4,23.2 413.4,22.4 412.8,21.4 C412.2,20.4 411.8,19.2 411.8,18 C411.8,16.9 412.1,15.8 412.6,14.8 C413.1,13.8 413.8,13 414.7,12.4 C415.4,11.9 416.3,11.5 417.5,11.1 C418.7,10.8 419.9,10.6 421.2,10.6 C423.2,10.6 425,10.9 426.5,11.5 C428,12.1 429.1,12.9 429.9,13.8 C430.6,14.8 431.1,16.1 431.4,17.8 L427.2,18.4 C427,17.1 426.4,16.1 425.5,15.3 C424.6,14.6 423.3,14.2 421.6,14.2 C419.6,14.2 418.2,14.5 417.3,15.2 C416.5,15.9 416,16.6 416,17.5 C416,18.1 416.2,18.6 416.5,19 C416.9,19.5 417.4,19.9 418.2,20.2 C418.6,20.4 419.9,20.7 422,21.3 C425.1,22.1 427.2,22.8 428.4,23.3 C429.6,23.8 430.6,24.6 431.3,25.6 C432,26.6 432.3,27.8 432.3,29.3 C432.3,30.7 431.9,32.1 431,33.4 C430.2,34.7 428.9,35.7 427.4,36.4 C425.8,37.1 424,37.4 422,37.4 C418.7,37.4 416.1,36.7 414.4,35.3 C412.8,33.9 411.6,31.9 411.2,29.2 Z" id="Path"></path><polygon id="Path" points="448 37.4 458.2 0.9 461.6 0.9 451.4 37.4"></polygon><path d="M502.3,1.5 L507,1.5 L507,21.9 C507,25.4 506.6,28.3 505.8,30.3 C505,32.4 503.6,34.1 501.5,35.4 C499.4,36.7 496.7,37.4 493.3,37.4 C490,37.4 487.3,36.8 485.2,35.7 C483.1,34.6 481.6,32.9 480.7,30.8 C479.8,28.6 479.4,25.7 479.4,22 L479.4,1.6 L484.1,1.6 L484.1,21.9 C484.1,25 484.4,27.2 485,28.7 C485.6,30.2 486.5,31.3 487.9,32.1 C489.3,32.9 491,33.3 493,33.3 C496.4,33.3 498.9,32.5 500.3,31 C501.8,29.4 502.5,26.5 502.5,22 L502.5,1.5 L502.3,1.5 Z" id="Path"></path><path d="M512.4,29.2 L516.7,28.5 C516.9,30.2 517.6,31.5 518.7,32.4 C519.8,33.3 521.3,33.8 523.3,33.8 C525.3,33.8 526.8,33.4 527.7,32.6 C528.7,31.8 529.1,30.8 529.1,29.7 C529.1,28.7 528.7,28 527.8,27.4 C527.2,27 525.7,26.5 523.4,25.9 C520.2,25.1 518,24.4 516.8,23.8 C515.6,23.2 514.6,22.4 514,21.4 C513.4,20.4 513,19.2 513,18 C513,16.9 513.3,15.8 513.8,14.8 C514.3,13.8 515,13 515.9,12.4 C516.6,11.9 517.5,11.5 518.7,11.1 C519.9,10.8 521.1,10.6 522.4,10.6 C524.4,10.6 526.2,10.9 527.7,11.5 C529.2,12.1 530.3,12.9 531.1,13.8 C531.8,14.8 532.3,16.1 532.6,17.8 L528.4,18.4 C528.2,17.1 527.6,16.1 526.7,15.3 C525.8,14.6 524.5,14.2 522.8,14.2 C520.8,14.2 519.4,14.5 518.5,15.2 C517.7,15.9 517.2,16.6 517.2,17.5 C517.2,18.1 517.4,18.6 517.7,19 C518.1,19.5 518.6,19.9 519.4,20.2 C519.8,20.4 521.1,20.7 523.2,21.3 C526.3,22.1 528.4,22.8 529.6,23.3 C530.8,23.8 531.8,24.6 532.5,25.6 C533.2,26.6 533.5,27.8 533.5,29.3 C533.5,30.7 533.1,32.1 532.2,33.4 C531.4,34.7 530.1,35.7 528.6,36.4 C527,37.1 525.2,37.4 523.2,37.4 C519.9,37.4 517.3,36.7 515.6,35.3 C514,33.9 512.9,31.9 512.4,29.2 Z" id="Path"></path><path d="M556.3,28.6 L560.8,29.2 C560.1,31.8 558.8,33.8 556.9,35.3 C555,36.7 552.6,37.5 549.6,37.5 C545.9,37.5 542.9,36.3 540.7,34 C538.5,31.7 537.4,28.5 537.4,24.3 C537.4,20 538.5,16.7 540.7,14.3 C542.9,11.9 545.8,10.7 549.3,10.7 C552.7,10.7 555.5,11.9 557.7,14.2 C559.9,16.5 560.9,19.8 560.9,24 L560.9,25.2 L541.9,25.2 C542.1,28 542.9,30.2 544.3,31.6 C545.7,33.1 547.5,33.8 549.6,33.8 C551.2,33.8 552.5,33.4 553.7,32.5 C554.7,31.7 555.6,30.4 556.3,28.6 Z M542,21.6 L556.3,21.6 C556.1,19.4 555.6,17.8 554.7,16.8 C553.3,15.1 551.5,14.3 549.3,14.3 C547.3,14.3 545.6,15 544.3,16.3 C542.9,17.5 542.2,19.3 542,21.6 Z" id="Shape" fill-rule="nonzero"></path><path d="M566.1,36.8 L566.1,11.3 L570,11.3 L570,15.2 C571,13.4 571.9,12.2 572.8,11.6 C573.6,11 574.6,10.7 575.6,10.7 C577.1,10.7 578.5,11.2 580,12.1 L578.5,16.1 C577.4,15.5 576.4,15.2 575.3,15.2 C574.4,15.2 573.5,15.5 572.8,16.1 C572,16.7 571.5,17.5 571.2,18.5 C570.7,20 570.5,21.7 570.5,23.6 L570.5,37 L566.1,37 L566.1,36.8 Z" id="Path"></path><path d="M580.8,29.2 L585.1,28.5 C585.3,30.2 586,31.5 587.1,32.4 C588.2,33.3 589.7,33.8 591.7,33.8 C593.7,33.8 595.2,33.4 596.1,32.6 C597.1,31.8 597.5,30.8 597.5,29.7 C597.5,28.7 597.1,28 596.2,27.4 C595.6,27 594.1,26.5 591.8,25.9 C588.6,25.1 586.4,24.4 585.2,23.8 C584,23.2 583,22.4 582.4,21.4 C581.8,20.4 581.5,19.2 581.5,18 C581.5,16.9 581.8,15.8 582.3,14.8 C582.8,13.8 583.5,13 584.4,12.4 C585.1,11.9 586,11.5 587.2,11.1 C588.4,10.8 589.6,10.6 590.9,10.6 C592.9,10.6 594.7,10.9 596.2,11.5 C597.7,12.1 598.8,12.9 599.6,13.8 C600.3,14.8 600.8,16.1 601.1,17.8 L596.9,18.4 C596.7,17.1 596.1,16.1 595.2,15.3 C594.3,14.6 593,14.2 591.3,14.2 C589.3,14.2 587.9,14.5 587,15.2 C586.2,15.9 585.7,16.6 585.7,17.5 C585.7,18.1 585.9,18.6 586.2,19 C586.6,19.5 587.1,19.9 587.9,20.2 C588.3,20.4 589.6,20.7 591.7,21.3 C594.8,22.1 596.9,22.8 598.1,23.3 C599.3,23.8 600.3,24.6 601,25.6 C601.7,26.6 602,27.8 602,29.3 C602,30.7 601.6,32.1 600.7,33.4 C599.9,34.7 598.6,35.7 597.1,36.4 C595.5,37.1 593.7,37.4 591.7,37.4 C588.4,37.4 585.8,36.7 584.1,35.3 C582.4,33.9 581.3,31.9 580.8,29.2 Z" id="Path"></path><rect id="Rectangle" x="622.2" y="1.5" width="4.7" height="35.3"></rect><path d="M634.6,36.8 L634.6,11.3 L638.5,11.3 L638.5,14.9 C640.4,12.1 643.1,10.7 646.6,10.7 C648.1,10.7 649.6,11 650.8,11.5 C652.1,12.1 653.1,12.8 653.7,13.7 C654.3,14.6 654.8,15.7 655,16.9 C655.2,17.7 655.2,19.1 655.2,21.1 L655.2,36.8 L651,36.8 L651,21.3 C651,19.5 650.8,18.2 650.5,17.3 C650.2,16.4 649.6,15.7 648.7,15.2 C647.8,14.7 646.8,14.4 645.7,14.4 C643.9,14.4 642.3,15 640.9,16.2 C639.6,17.4 638.9,19.6 638.9,22.9 L638.9,36.8 L634.6,36.8 Z" id="Path"></path><path d="M671.4,32.9 L672,36.7 C670.8,37 669.7,37.1 668.7,37.1 C667.1,37.1 665.9,36.8 665,36.4 C664.1,35.9 663.5,35.2 663.2,34.4 C662.8,33.6 662.7,31.9 662.7,29.3 L662.7,14.6 L659.5,14.6 L659.5,11.2 L662.7,11.2 L662.7,4.9 L667,2.3 L667,11.2 L671.4,11.2 L671.4,14.6 L667,14.6 L667,29.5 C667,30.7 667.1,31.5 667.2,31.9 L667.9,32.7 C668.2,32.9 668.7,33 669.4,33 C670,33.1 670.6,33 671.4,32.9 Z" id="Path"></path><path d="M693.1,28.6 L697.6,29.2 C696.9,31.8 695.6,33.8 693.7,35.3 C691.8,36.7 689.4,37.5 686.4,37.5 C682.7,37.5 679.7,36.3 677.5,34 C675.3,31.7 674.2,28.5 674.2,24.3 C674.2,20 675.3,16.7 677.5,14.3 C679.7,11.9 682.6,10.7 686.1,10.7 C689.5,10.7 692.3,11.9 694.5,14.2 C696.7,16.5 697.7,19.8 697.7,24 L697.7,25.2 L678.7,25.2 C678.9,28 679.7,30.2 681.1,31.6 C682.5,33.1 684.3,33.8 686.4,33.8 C688,33.8 689.3,33.4 690.5,32.5 C691.6,31.7 692.5,30.4 693.1,28.6 Z M678.9,21.6 L693.2,21.6 C693,19.4 692.5,17.8 691.6,16.8 C690.2,15.1 688.4,14.3 686.2,14.3 C684.2,14.3 682.5,15 681.2,16.3 C679.8,17.5 679.1,19.3 678.9,21.6 Z" id="Shape" fill-rule="nonzero"></path><path d="M703,36.8 L703,11.3 L706.9,11.3 L706.9,15.2 C707.9,13.4 708.8,12.2 709.7,11.6 C710.5,11 711.5,10.7 712.5,10.7 C714,10.7 715.4,11.2 716.9,12.1 L715.4,16.1 C714.3,15.5 713.3,15.2 712.2,15.2 C711.3,15.2 710.4,15.5 709.7,16.1 C708.9,16.7 708.4,17.5 708.1,18.5 C707.6,20 707.4,21.7 707.4,23.6 L707.4,37 L703,37 L703,36.8 Z" id="Path"></path><path d="M736.1,33.6 C734.5,35 733,35.9 731.5,36.5 C730,37.1 728.4,37.3 726.7,37.3 C723.9,37.3 721.7,36.6 720.2,35.2 C718.7,33.8 717.9,32.1 717.9,29.9 C717.9,28.6 718.2,27.5 718.8,26.5 C719.4,25.5 720.1,24.6 721,24 C721.9,23.4 723,22.9 724.1,22.6 C724.9,22.4 726.2,22.2 727.9,22 C731.4,21.6 734,21.1 735.6,20.5 C735.6,19.9 735.6,19.5 735.6,19.4 C735.6,17.6 735.2,16.4 734.4,15.7 C733.3,14.7 731.7,14.2 729.5,14.2 C727.5,14.2 726,14.6 725,15.3 C724,16 723.3,17.3 722.8,19.1 L718.6,18.5 C719,16.7 719.6,15.2 720.5,14.1 C721.4,13 722.7,12.1 724.3,11.5 C725.9,10.9 727.9,10.6 730.1,10.6 C732.3,10.6 734.1,10.9 735.4,11.4 C736.8,11.9 737.8,12.6 738.4,13.3 C739,14.1 739.5,15.1 739.7,16.2 C739.8,16.9 739.9,18.3 739.9,20.2 L739.9,26 C739.9,30 740,32.6 740.2,33.6 C740.4,34.7 740.7,35.7 741.3,36.7 L737,36.7 C736.5,35.9 736.2,34.8 736.1,33.6 Z M735.8,24 C734.2,24.6 731.9,25.2 728.7,25.6 C726.9,25.9 725.7,26.1 724.9,26.5 C724.2,26.8 723.6,27.3 723.2,27.9 C722.8,28.5 722.6,29.2 722.6,30 C722.6,31.2 723,32.1 723.9,32.9 C724.8,33.7 726.1,34.1 727.7,34.1 C729.4,34.1 730.9,33.7 732.1,33 C733.4,32.3 734.4,31.3 735,30 C735.5,29 735.7,27.6 735.7,25.7 L735.7,24 L735.8,24 Z" id="Shape" fill-rule="nonzero"></path><path d="M763.5,27.4 L767.8,28 C767.3,30.9 766.1,33.2 764.2,34.9 C762.3,36.6 759.9,37.4 757.1,37.4 C753.6,37.4 750.8,36.3 748.7,34 C746.6,31.7 745.5,28.4 745.5,24.2 C745.5,21.4 746,19 746.9,17 C747.8,14.9 749.2,13.4 751.1,12.3 C753,11.3 755,10.7 757.2,10.7 C760,10.7 762.2,11.4 764,12.8 C765.8,14.2 766.9,16.2 767.4,18.8 L763.2,19.4 C762.8,17.7 762.1,16.4 761.1,15.5 C760.1,14.6 758.9,14.2 757.4,14.2 C755.2,14.2 753.4,15 752.1,16.5 C750.7,18.1 750.1,20.5 750.1,23.9 C750.1,27.3 750.8,29.8 752.1,31.4 C753.4,33 755.1,33.7 757.2,33.7 C758.9,33.7 760.3,33.2 761.5,32.1 C762.5,31.2 763.2,29.6 763.5,27.4 Z" id="Path"></path><path d="M780.9,32.9 L781.5,36.7 C780.3,37 779.2,37.1 778.2,37.1 C776.6,37.1 775.4,36.8 774.5,36.4 C773.6,36 773,35.2 772.7,34.4 C772.3,33.6 772.2,31.9 772.2,29.3 L772.2,14.6 L769,14.6 L769,11.2 L772.2,11.2 L772.2,4.9 L776.5,2.3 L776.5,11.2 L780.9,11.2 L780.9,14.6 L776.5,14.6 L776.5,29.5 C776.5,30.7 776.6,31.5 776.7,31.9 L777.4,32.7 C777.7,32.9 778.2,33 778.9,33 C779.5,33.1 780.1,33 780.9,32.9 Z" id="Path"></path></g></g></g><g id="Group" transform="translate(305.000000, 174.000000)" fill="#231F20"><path d="M0.5,56.2 L0.5,0.5 L17.7,0.5 C21.2,0.5 23.9,1 25.9,2.1 C27.9,3.2 29.6,4.9 30.9,7.1 C32.2,9.4 32.8,11.9 32.8,14.7 C32.8,17.3 32.2,19.6 31.1,21.6 C30,23.7 28.4,25.3 26.4,26.5 C29,27.5 31.1,29.1 32.7,31.4 C34.2,33.7 35,36.6 35,40 C35,43.4 34.3,46.3 32.9,48.9 C31.5,51.4 29.7,53.3 27.4,54.4 C25.1,55.6 21.9,56.1 17.9,56.1 L0.5,56.1 L0.5,56.2 Z M6.6,23.9 L16.5,23.9 C19.1,23.9 20.9,23.7 22,23.4 C23.6,22.9 24.8,22 25.6,20.7 C26.5,19.4 26.9,17.7 26.9,15.6 C26.9,13.6 26.5,11.9 25.7,10.6 C24.9,9.3 23.9,8.3 22.6,7.8 C21.3,7.3 19,7 15.7,7 L6.5,7 L6.5,23.9 L6.6,23.9 Z M6.6,49.6 L18,49.6 C20.5,49.6 22.4,49.4 23.6,48.9 C25.3,48.2 26.6,47.2 27.5,45.7 C28.4,44.2 28.9,42.3 28.9,40 C28.9,37.9 28.5,36.1 27.6,34.7 C26.7,33.2 25.6,32.2 24.1,31.5 C22.6,30.8 20.4,30.5 17.2,30.5 L6.6,30.5 L6.6,49.6 Z" id="Shape" fill-rule="nonzero"></path><polygon id="Path" points="42.3 56.2 42.3 0.5 47.9 0.5 47.9 56.2"></polygon><path d="M54.5,36 C54.5,29 56,23.8 58.9,20.2 C61.8,16.7 65.5,14.9 70,14.9 C74.4,14.9 78.1,16.7 81.1,20.2 C84.1,23.7 85.5,28.9 85.5,35.5 C85.5,42.7 84,48.1 81.1,51.7 C78.2,55.2 74.5,57 70,57 C65.6,57 61.9,55.2 58.9,51.7 C56,48.2 54.5,42.9 54.5,36 Z M60.3,36 C60.3,41.2 61.3,45.1 63.1,47.7 C65,50.2 67.4,51.5 70.2,51.5 C72.8,51.5 75.1,50.2 77,47.6 C78.9,45 79.8,41.2 79.8,36 C79.8,30.8 78.8,26.9 77,24.4 C75.1,21.9 72.7,20.6 69.9,20.6 C67.2,20.6 65,21.9 63.1,24.4 C61.2,26.9 60.3,30.8 60.3,36 Z" id="Shape" fill-rule="nonzero"></path><path d="M90,36 C90,29 91.5,23.8 94.4,20.2 C97.3,16.7 101,14.9 105.5,14.9 C109.9,14.9 113.6,16.7 116.6,20.2 C119.6,23.7 121,28.9 121,35.5 C121,42.7 119.5,48.1 116.6,51.7 C113.7,55.2 110,57 105.5,57 C101.1,57 97.4,55.2 94.4,51.7 C91.5,48.2 90,42.9 90,36 Z M95.7,36 C95.7,41.2 96.7,45.1 98.5,47.7 C100.4,50.2 102.8,51.5 105.6,51.5 C108.2,51.5 110.5,50.2 112.4,47.6 C114.3,45 115.2,41.2 115.2,36 C115.2,30.8 114.3,26.9 112.4,24.4 C110.5,21.9 108.1,20.6 105.3,20.6 C102.6,20.6 100.4,21.9 98.5,24.4 C96.7,26.9 95.7,30.8 95.7,36 Z" id="Shape" fill-rule="nonzero"></path><path d="M149,56.2 L149,51.1 C148,53 146.7,54.5 145.1,55.6 C143.5,56.6 141.8,57.1 139.9,57.1 C136,57.1 132.6,55.3 129.8,51.6 C126.9,47.9 125.5,42.7 125.5,36 C125.5,31.4 126.1,27.5 127.4,24.3 C128.7,21.1 130.4,18.7 132.5,17.2 C134.6,15.7 137,14.9 139.5,14.9 C141.3,14.9 143.1,15.4 144.6,16.4 C146.2,17.4 147.5,18.7 148.5,20.5 L148.5,0.5 L154.2,0.5 L154.2,56.2 L149,56.2 Z M131.3,36 C131.3,41.2 132.2,45.1 134,47.6 C135.8,50.1 137.9,51.4 140.3,51.4 C142.7,51.4 144.7,50.2 146.5,47.8 C148.2,45.4 149.1,41.7 149.1,36.8 C149.1,31.2 148.2,27 146.5,24.4 C144.8,21.8 142.5,20.5 139.9,20.5 C137.5,20.5 135.5,21.7 133.8,24.2 C132.1,26.8 131.3,30.7 131.3,36 Z" id="Shape" fill-rule="nonzero"></path></g><g id="Group" transform="translate(305.000000, 80.000000)" fill="#231F20"><polygon id="Path" points="0.5 56 0.5 0.3 6.5 0.3 6.5 56"></polygon><path d="M16.3,56 L16.3,15.7 L21.4,15.7 L21.4,21.4 C22.6,19.2 24.1,17.5 25.9,16.4 C27.7,15.3 29.7,14.8 31.9,14.8 C33.7,14.8 35.3,15.1 36.8,15.8 C38.3,16.5 39.5,17.4 40.4,18.5 C41.3,19.6 42,21.1 42.5,22.9 C43,24.7 43.2,27.5 43.2,31.2 L43.2,56 L37.6,56 L37.6,31.4 C37.6,28.4 37.3,26.3 36.8,24.9 C36.3,23.5 35.5,22.5 34.4,21.7 C33.3,21 32.1,20.6 30.7,20.6 C28,20.6 25.9,21.6 24.3,23.6 C22.7,25.6 21.9,29 21.9,33.9 L21.9,56 L16.3,56 Z" id="Path"></path><path d="M64.3,49.9 L65.1,55.9 C63.6,56.3 62.2,56.5 60.9,56.5 C59,56.5 57.4,56.1 56.2,55.3 C55,54.5 54.2,53.5 53.7,52.1 C53.3,50.8 53,48.1 53,44.1 L53,21 L48.9,21 L48.9,15.7 L53,15.7 L53,5.7 L58.6,1.6 L58.6,15.7 L64.3,15.7 L64.3,21 L58.6,21 L58.6,44.6 C58.6,46.8 58.8,48.2 59.1,48.8 C59.6,49.7 60.5,50.2 61.8,50.2 C62.4,50.2 63.3,50.1 64.3,49.9 Z" id="Path"></path><path d="M92.1,43 L97.9,43.9 C96.9,48.2 95.2,51.5 92.7,53.6 C90.2,55.8 87.1,56.9 83.3,56.9 C78.6,56.9 74.8,55.1 71.9,51.6 C69,48 67.5,42.9 67.5,36.2 C67.5,29.2 69,23.9 71.9,20.3 C74.8,16.6 78.5,14.8 83,14.8 C87.3,14.8 90.9,16.6 93.7,20.2 C96.6,23.8 98,29 98,35.8 L98,37.6 L73.3,37.6 C73.5,42.1 74.6,45.5 76.5,47.9 C78.4,50.2 80.7,51.4 83.3,51.4 C87.6,51.3 90.5,48.6 92.1,43 Z M73.7,32 L92.2,32 C91.9,28.5 91.2,25.9 90,24.2 C88.2,21.7 85.9,20.4 83.1,20.4 C80.6,20.4 78.5,21.4 76.7,23.5 C74.9,25.6 73.9,28.4 73.7,32 Z" id="Shape" fill-rule="nonzero"></path><path d="M105,56 L105,15.7 L110.1,15.7 L110.1,21.4 C111.3,19.2 112.8,17.5 114.6,16.4 C116.4,15.3 118.4,14.8 120.6,14.8 C122.4,14.8 124,15.1 125.5,15.8 C127,16.5 128.2,17.4 129.1,18.5 C130,19.6 130.7,21.1 131.2,22.9 C131.7,24.7 131.9,27.5 131.9,31.2 L131.9,56 L126.3,56 L126.3,31.4 C126.3,28.4 126,26.3 125.5,24.9 C125,23.5 124.2,22.5 123.1,21.7 C122,21 120.8,20.6 119.4,20.6 C116.7,20.6 114.6,21.6 113,23.6 C111.4,25.6 110.6,29 110.6,33.9 L110.6,56 L105,56 Z" id="Path"></path><path d="M138.3,43.9 L143.9,42.8 C144.2,45.6 145.1,47.8 146.6,49.2 C148.1,50.6 150,51.3 152.4,51.3 C154.8,51.3 156.7,50.7 158,49.5 C159.3,48.3 160,46.8 160,44.9 C160,43.3 159.4,42.1 158.3,41.2 C157.5,40.6 155.6,39.8 152.6,38.9 C148.2,37.6 145.3,36.4 143.9,35.5 C142.4,34.6 141.3,33.3 140.5,31.7 C139.7,30.1 139.3,28.3 139.3,26.3 C139.3,22.9 140.4,20.1 142.6,17.9 C144.8,15.7 147.9,14.7 151.8,14.7 C154.3,14.7 156.4,15.1 158.3,16 C160.2,16.9 161.6,18.1 162.6,19.6 C163.6,21.1 164.3,23.2 164.7,26 L159.2,26.9 C158.7,22.5 156.3,20.3 152,20.3 C149.6,20.3 147.8,20.8 146.6,21.8 C145.4,22.8 144.8,24 144.8,25.5 C144.8,27 145.4,28.2 146.5,29 C147.2,29.5 149.2,30.3 152.6,31.4 C157.2,32.9 160.2,34 161.6,34.9 C163,35.8 164,37 164.8,38.5 C165.6,40 165.9,41.8 165.9,43.9 C165.9,47.8 164.7,50.9 162.2,53.3 C159.8,55.7 156.4,56.9 152.2,56.9 C144.2,56.9 139.6,52.6 138.3,43.9 Z" id="Path"></path><path d="M195,43 L200.8,43.9 C199.8,48.2 198.1,51.5 195.6,53.6 C193.1,55.8 190,56.9 186.2,56.9 C181.5,56.9 177.7,55.1 174.8,51.6 C171.9,48 170.4,42.9 170.4,36.2 C170.4,29.2 171.9,23.9 174.8,20.3 C177.7,16.6 181.4,14.8 185.9,14.8 C190.2,14.8 193.8,16.6 196.6,20.2 C199.5,23.8 200.9,29 200.9,35.8 L200.9,37.6 L176.2,37.6 C176.4,42.1 177.5,45.5 179.4,47.9 C181.3,50.2 183.6,51.4 186.2,51.4 C190.4,51.3 193.3,48.6 195,43 Z M176.6,32 L195,32 C194.7,28.5 194,25.9 192.8,24.2 C191,21.7 188.7,20.4 185.9,20.4 C183.4,20.4 181.3,21.4 179.5,23.5 C177.7,25.6 176.8,28.4 176.6,32 Z" id="Shape" fill-rule="nonzero"></path><path d="M239.5,56 L221.8,0.3 L228.3,0.3 L240.2,40.7 C241.1,43.8 241.9,46.9 242.6,49.8 C243.3,46.7 244.1,43.7 245,40.7 L257.4,0.3 L263.6,0.3 L245.7,56 L239.5,56 Z" id="Path"></path><path d="M267,8.2 L267,0.3 L272.6,0.3 L272.6,8.2 L267,8.2 Z M267,56 L267,15.7 L272.6,15.7 L272.6,56 L267,56 Z" id="Shape" fill-rule="nonzero"></path><path d="M279.1,35.9 C279.1,28.9 280.6,23.7 283.5,20.1 C286.4,16.6 290.1,14.8 294.6,14.8 C299,14.8 302.7,16.6 305.7,20.1 C308.7,23.6 310.1,28.8 310.1,35.4 C310.1,42.6 308.6,48 305.7,51.6 C302.8,55.1 299.1,56.9 294.6,56.9 C290.2,56.9 286.5,55.1 283.5,51.6 C280.6,48 279.1,42.8 279.1,35.9 Z M284.8,35.8 C284.8,41 285.8,44.9 287.6,47.5 C289.5,50 291.9,51.3 294.7,51.3 C297.3,51.3 299.6,50 301.5,47.4 C303.4,44.8 304.3,41 304.3,35.8 C304.3,30.6 303.4,26.7 301.5,24.2 C299.6,21.7 297.2,20.4 294.4,20.4 C291.7,20.4 289.5,21.7 287.6,24.2 C285.8,26.8 284.8,30.7 284.8,35.8 Z" id="Shape" fill-rule="nonzero"></path><polygon id="Path" points="316.5 56 316.5 0.3 322.1 0.3 322.1 56"></polygon><path d="M353.4,43 L359.2,43.9 C358.2,48.2 356.5,51.5 354,53.6 C351.5,55.8 348.4,56.9 344.6,56.9 C339.9,56.9 336.1,55.1 333.2,51.6 C330.3,48 328.8,42.9 328.8,36.2 C328.8,29.2 330.3,23.9 333.2,20.3 C336.1,16.6 339.8,14.8 344.3,14.8 C348.6,14.8 352.2,16.6 355,20.2 C357.9,23.8 359.3,29 359.3,35.8 L359.3,37.6 L334.6,37.6 C334.8,42.1 335.9,45.5 337.8,47.9 C339.7,50.2 342,51.4 344.6,51.4 C348.9,51.3 351.8,48.6 353.4,43 Z M335,32 L353.5,32 C353.2,28.5 352.5,25.9 351.3,24.2 C349.5,21.7 347.2,20.4 344.4,20.4 C341.9,20.4 339.8,21.4 338,23.5 C336.2,25.6 335.2,28.4 335,32 Z" id="Shape" fill-rule="nonzero"></path><path d="M366.3,56 L366.3,15.7 L371.4,15.7 L371.4,21.4 C372.6,19.2 374.1,17.5 375.9,16.4 C377.7,15.3 379.7,14.8 382,14.8 C383.8,14.8 385.4,15.1 386.9,15.8 C388.4,16.5 389.6,17.4 390.5,18.5 C391.4,19.6 392.1,21.1 392.6,22.9 C393.1,24.7 393.3,27.5 393.3,31.2 L393.3,56 L387.7,56 L387.7,31.4 C387.7,28.4 387.4,26.3 386.9,24.9 C386.4,23.5 385.6,22.5 384.5,21.7 C383.4,21 382.2,20.6 380.8,20.6 C378.1,20.6 376,21.6 374.4,23.6 C372.8,25.6 372,29 372,33.9 L372,56 L366.3,56 Z" id="Path"></path><path d="M423.4,41.3 L428.9,42.2 C428.3,47 426.7,50.7 424.1,53.2 C421.5,55.7 418.5,57 414.9,57 C410.6,57 407,55.2 404.2,51.7 C401.4,48.1 400,42.9 400,35.9 C400,28.9 401.4,23.6 404.2,20.1 C407,16.6 410.6,14.8 415.1,14.8 C418.5,14.8 421.4,15.9 423.7,18 C426,20.1 427.5,23.3 428.2,27.6 L422.8,28.6 C422.3,25.9 421.3,23.8 420,22.5 C418.7,21.1 417.1,20.5 415.3,20.5 C412.5,20.5 410.3,21.7 408.4,24.2 C406.6,26.6 405.7,30.5 405.7,35.8 C405.7,41.3 406.6,45.3 408.3,47.7 C410,50.2 412.3,51.4 415,51.4 C417.1,51.4 418.9,50.6 420.4,49 C422.1,47.2 423,44.7 423.4,41.3 Z" id="Path"></path><path d="M456.3,43 L462.1,43.9 C461.1,48.2 459.4,51.5 456.9,53.6 C454.4,55.8 451.3,56.9 447.5,56.9 C442.8,56.9 439,55.1 436.1,51.6 C433.2,48 431.7,42.9 431.7,36.2 C431.7,29.2 433.2,23.9 436.1,20.3 C439,16.6 442.7,14.8 447.2,14.8 C451.5,14.8 455.1,16.6 457.9,20.2 C460.8,23.8 462.2,29 462.2,35.8 L462.2,37.6 L437.5,37.6 C437.7,42.1 438.8,45.5 440.7,47.9 C442.6,50.2 444.9,51.4 447.5,51.4 C451.7,51.3 454.7,48.6 456.3,43 Z M437.9,32 L456.4,32 C456.1,28.5 455.4,25.9 454.2,24.2 C452.4,21.7 450.1,20.4 447.3,20.4 C444.8,20.4 442.7,21.4 440.9,23.5 C439,25.6 438.1,28.4 437.9,32 Z" id="Shape" fill-rule="nonzero"></path></g><g id="Group" transform="translate(305.000000, 268.000000)" fill="#231F20"><path d="M0.5,38.5 L6.2,37.9 C6.5,41 7.2,43.3 8.3,45.1 C9.4,46.8 10.9,48.2 12.9,49.2 C14.9,50.2 17.2,50.8 19.7,50.8 C23.3,50.8 26.1,49.9 28.1,48.2 C30.1,46.4 31.1,44.2 31.1,41.4 C31.1,39.8 30.7,38.3 30,37.1 C29.3,35.9 28.2,34.9 26.7,34.1 C25.2,33.3 22.1,32.2 17.3,30.8 C13,29.5 9.9,28.2 8.1,26.9 C6.3,25.6 4.9,24 3.8,22 C2.8,20 2.3,17.8 2.3,15.3 C2.3,10.8 3.8,7.1 6.7,4.3 C9.6,1.4 13.5,0 18.5,0 C21.9,0 24.9,0.7 27.4,2 C30,3.3 31.9,5.3 33.3,7.8 C34.7,10.3 35.5,13.2 35.6,16.6 L29.8,17.1 C29.5,13.5 28.4,10.8 26.6,9 C24.7,7.3 22.1,6.4 18.8,6.4 C15.4,6.4 12.8,7.2 11,8.7 C9.2,10.2 8.3,12.2 8.3,14.6 C8.3,16.9 9,18.6 10.3,19.8 C11.6,21 14.6,22.3 19.2,23.6 C23.7,24.8 26.9,25.9 28.7,26.8 C31.5,28.2 33.6,30.1 35,32.4 C36.4,34.7 37.1,37.5 37.1,40.7 C37.1,43.9 36.4,46.8 34.9,49.4 C33.4,52 31.4,54 28.8,55.4 C26.2,56.8 23.1,57.5 19.5,57.5 C13.9,57.5 9.4,55.8 6,52.4 C2.4,48.9 0.7,44.3 0.5,38.5 Z" id="Path"></path><path d="M56.8,50.3 L57.6,56.3 C56.1,56.7 54.7,56.9 53.4,56.9 C51.5,56.9 49.9,56.5 48.7,55.7 C47.5,54.9 46.7,53.9 46.3,52.5 C45.9,51.2 45.6,48.5 45.6,44.5 L45.6,21.3 L41.5,21.3 L41.5,16 L45.6,16 L45.6,6 L51.2,1.9 L51.2,16 L56.9,16 L56.9,21.3 L51.2,21.3 L51.2,45 C51.2,47.2 51.4,48.6 51.7,49.2 C52.2,50.1 53.1,50.6 54.4,50.6 C54.9,50.6 55.8,50.5 56.8,50.3 Z" id="Path"></path><path d="M62.1,56.4 L62.1,16.1 L67.2,16.1 L67.2,22.2 C68.5,19.4 69.7,17.5 70.8,16.6 C71.9,15.7 73.1,15.2 74.4,15.2 C76.3,15.2 78.2,15.9 80.1,17.4 L78.2,23.7 C76.8,22.7 75.5,22.2 74.1,22.2 C72.9,22.2 71.8,22.6 70.8,23.5 C69.8,24.3 69.1,25.5 68.7,27 C68,29.6 67.6,32.4 67.6,35.3 L67.6,56.4 L62.1,56.4 Z" id="Path"></path><path d="M81.2,36.3 C81.2,29.3 82.7,24.1 85.6,20.5 C88.5,17 92.2,15.2 96.7,15.2 C101.1,15.2 104.8,17 107.8,20.5 C110.8,24 112.2,29.2 112.2,35.8 C112.2,43 110.7,48.4 107.8,52 C104.9,55.5 101.2,57.3 96.7,57.3 C92.3,57.3 88.6,55.5 85.6,52 C82.6,48.4 81.2,43.2 81.2,36.3 Z M86.9,36.2 C86.9,41.4 87.8,45.3 89.7,47.9 C91.6,50.4 94,51.7 96.8,51.7 C99.4,51.7 101.7,50.4 103.6,47.8 C105.5,45.2 106.4,41.4 106.4,36.2 C106.4,31 105.4,27.1 103.6,24.6 C101.8,22.1 99.3,20.8 96.5,20.8 C93.8,20.8 91.6,22.1 89.7,24.6 C87.8,27.2 86.9,31.1 86.9,36.2 Z" id="Shape" fill-rule="nonzero"></path><path d="M118.8,56.4 L118.8,16.1 L123.9,16.1 L123.9,21.8 C125.1,19.6 126.6,17.9 128.4,16.8 C130.2,15.7 132.2,15.2 134.4,15.2 C136.2,15.2 137.8,15.5 139.3,16.2 C140.8,16.9 142,17.8 142.9,18.9 C143.8,20 144.5,21.5 145,23.3 C145.5,25.1 145.7,27.9 145.7,31.6 L145.7,56.4 L140,56.4 L140,31.8 C140,28.8 139.7,26.7 139.2,25.3 C138.7,23.9 137.9,22.9 136.8,22.1 C135.7,21.4 134.5,21 133.1,21 C130.4,21 128.3,22 126.7,24 C125.1,26 124.3,29.4 124.3,34.3 L124.3,56.3 L118.8,56.3 L118.8,56.4 Z" id="Path"></path><path d="M153.1,59.8 L158.6,60.8 C158.9,63 159.6,64.6 160.9,65.6 C162.2,66.7 163.9,67.2 166.2,67.2 C168.7,67.2 170.6,66.6 172.1,65.4 C173.6,64.2 174.6,62.5 175.1,60.1 C175.4,58.7 175.6,55.7 175.6,51.1 C174.4,52.8 173,54.1 171.5,55 C170,55.9 168.3,56.3 166.4,56.3 C162.4,56.3 159.2,54.6 156.6,51.3 C153.6,47.4 152.1,42.3 152.1,35.8 C152.1,31.5 152.8,27.7 154.1,24.4 C155.4,21.2 157.1,18.8 159.3,17.3 C161.4,15.8 163.8,15 166.5,15 C168.4,15 170.2,15.5 171.8,16.4 C173.4,17.4 174.8,18.8 176.1,20.7 L176.1,15.9 L181.3,15.9 L181.3,51 C181.3,57.2 180.8,61.6 179.8,64.3 C178.8,66.9 177.1,69 174.8,70.6 C172.5,72.1 169.7,72.9 166.5,72.9 C162.2,72.9 158.9,71.7 156.6,69.4 C154.2,67 153.1,63.8 153.1,59.8 Z M157.8,35.5 C157.8,40.8 158.7,44.7 160.4,47.1 C162.2,49.5 164.3,50.8 166.8,50.8 C169.3,50.8 171.5,49.6 173.3,47.2 C175.1,44.8 176,41 176,35.8 C176,30.7 175.1,26.9 173.3,24.5 C171.5,22 169.3,20.8 166.6,20.8 C164.3,20.8 162.2,22 160.5,24.5 C158.7,27 157.8,30.7 157.8,35.5 Z" id="Shape" fill-rule="nonzero"></path><polygon id="Path" points="207.9 56.4 207.9 0.7 213.9 0.7 213.9 49.8 236.4 49.8 236.4 56.4 207.9 56.4"></polygon><path d="M264.5,51.4 C262.6,53.4 260.7,54.8 258.7,55.8 C256.7,56.8 254.6,57.3 252.4,57.3 C249,57.3 246.2,56.3 244.2,54.2 C242.1,52.1 241.1,49.3 241.1,45.8 C241.1,43.5 241.6,41.4 242.5,39.6 C243.5,37.8 244.8,36.4 246.5,35.4 C248.2,34.4 250.7,33.6 254.1,33.2 C258.7,32.5 262,31.7 264.1,30.8 L264.1,29 C264.1,26.2 263.6,24.3 262.6,23.2 C261.2,21.6 259.1,20.8 256.2,20.8 C253.6,20.8 251.6,21.3 250.4,22.4 C249.1,23.5 248.2,25.5 247.6,28.5 L242.1,27.6 C242.9,23.3 244.5,20.1 246.9,18.1 C249.3,16.1 252.7,15.1 257.2,15.1 C260.7,15.1 263.4,15.8 265.4,17.1 C267.4,18.4 268.6,20 269.1,22 C269.6,23.9 269.9,26.7 269.9,30.4 L269.9,39.5 C269.9,45.9 270,49.9 270.3,51.6 C270.5,53.3 271,54.9 271.7,56.4 L265.9,56.4 C265,55 264.6,53.4 264.5,51.4 Z M264,36.2 C261.9,37.2 258.9,38.1 254.8,38.8 C252.4,39.2 250.8,39.7 249.9,40.2 C249,40.7 248.2,41.5 247.7,42.4 C247.2,43.4 246.9,44.5 246.9,45.7 C246.9,47.6 247.5,49.2 248.7,50.3 C249.9,51.5 251.5,52 253.6,52 C255.6,52 257.4,51.5 259.1,50.4 C260.7,49.4 262,48 262.8,46.2 C263.6,44.5 264,41.9 264,38.6 L264,36.2 Z" id="Shape" fill-rule="nonzero"></path><path d="M278.4,56.4 L278.4,16.1 L283.5,16.1 L283.5,21.8 C284.7,19.6 286.2,17.9 288,16.8 C289.8,15.7 291.8,15.2 294.1,15.2 C295.9,15.2 297.5,15.5 299,16.2 C300.5,16.9 301.7,17.8 302.6,18.9 C303.5,20 304.2,21.5 304.7,23.3 C305.2,25.1 305.4,27.9 305.4,31.6 L305.4,56.4 L299.8,56.4 L299.8,31.8 C299.8,28.8 299.5,26.7 299,25.3 C298.5,23.9 297.7,22.9 296.6,22.1 C295.5,21.4 294.3,21 292.9,21 C290.2,21 288.1,22 286.5,24 C284.9,26 284.1,29.4 284.1,34.3 L284.1,56.3 L278.4,56.3 L278.4,56.4 Z" id="Path"></path><path d="M312.8,59.8 L318.3,60.8 C318.6,63 319.3,64.6 320.6,65.6 C321.9,66.7 323.6,67.2 325.9,67.2 C328.4,67.2 330.3,66.6 331.8,65.4 C333.3,64.2 334.2,62.5 334.8,60.1 C335.1,58.7 335.3,55.7 335.3,51.1 C334.1,52.8 332.7,54.1 331.2,55 C329.7,55.9 328,56.3 326.1,56.3 C322.1,56.3 318.9,54.6 316.3,51.3 C313.3,47.4 311.8,42.3 311.8,35.8 C311.8,31.5 312.5,27.7 313.8,24.4 C315.1,21.2 316.8,18.8 319,17.3 C321.1,15.8 323.5,15 326.2,15 C328.1,15 329.9,15.5 331.5,16.4 C333.1,17.4 334.5,18.8 335.8,20.7 L335.8,15.9 L341,15.9 L341,51 C341,57.2 340.5,61.6 339.5,64.3 C338.5,66.9 336.8,69 334.5,70.6 C332.2,72.1 329.4,72.9 326.2,72.9 C321.9,72.9 318.6,71.7 316.3,69.4 C313.8,67 312.7,63.8 312.8,59.8 Z M317.4,35.5 C317.4,40.8 318.3,44.7 320,47.1 C321.8,49.5 323.9,50.8 326.4,50.8 C328.9,50.8 331.1,49.6 332.9,47.2 C334.7,44.8 335.6,41 335.6,35.8 C335.6,30.7 334.7,26.9 332.9,24.5 C331.1,22 328.9,20.8 326.2,20.8 C323.9,20.8 321.8,22 320.1,24.5 C318.3,27 317.4,30.7 317.4,35.5 Z" id="Shape" fill-rule="nonzero"></path><path d="M371,56.4 L371,50.5 C369.7,52.8 368.2,54.5 366.4,55.6 C364.7,56.7 362.7,57.3 360.5,57.3 C357.9,57.3 355.7,56.6 353.8,55.2 C351.9,53.8 350.7,52 350.1,49.9 C349.5,47.8 349.2,44.8 349.2,41.1 L349.2,16.1 L354.8,16.1 L354.8,38.5 C354.8,42.7 355,45.4 355.4,46.8 C355.8,48.2 356.6,49.3 357.7,50.2 C358.8,51 360.1,51.5 361.6,51.5 C364.3,51.5 366.5,50.4 368.2,48.2 C369.7,46.3 370.4,42.8 370.4,37.8 L370.4,16.2 L376,16.2 L376,56.5 L371,56.5 L371,56.4 Z" id="Path"></path><path d="M406.4,51.4 C404.5,53.4 402.6,54.8 400.6,55.8 C398.6,56.8 396.5,57.3 394.3,57.3 C390.9,57.3 388.1,56.3 386.1,54.2 C384,52.1 383,49.3 383,45.8 C383,43.5 383.5,41.4 384.4,39.6 C385.4,37.8 386.7,36.4 388.3,35.4 C390,34.4 392.5,33.6 395.9,33.2 C400.5,32.5 403.8,31.7 405.9,30.8 L405.9,29 C405.9,26.2 405.4,24.3 404.4,23.2 C403,21.6 400.9,20.8 398,20.8 C395.4,20.8 393.4,21.3 392.2,22.4 C390.9,23.5 390,25.5 389.4,28.5 L383.9,27.6 C384.7,23.3 386.3,20.1 388.7,18.1 C391.1,16.1 394.5,15.1 399,15.1 C402.5,15.1 405.2,15.8 407.2,17.1 C409.2,18.4 410.4,20 410.9,22 C411.4,23.9 411.7,26.7 411.7,30.4 L411.7,39.5 C411.7,45.9 411.8,49.9 412.1,51.6 C412.3,53.3 412.8,54.9 413.5,56.4 L407.7,56.4 C406.9,55 406.5,53.4 406.4,51.4 Z M405.9,36.2 C403.8,37.2 400.8,38.1 396.7,38.8 C394.3,39.2 392.7,39.7 391.8,40.2 C390.9,40.7 390.1,41.5 389.6,42.4 C389.1,43.4 388.8,44.5 388.8,45.7 C388.8,47.6 389.4,49.2 390.6,50.3 C391.8,51.5 393.4,52 395.5,52 C397.5,52 399.3,51.5 401,50.4 C402.6,49.4 403.9,48 404.7,46.2 C405.5,44.5 405.9,41.9 405.9,38.6 L405.9,36.2 Z" id="Shape" fill-rule="nonzero"></path><path d="M419.2,59.8 L424.7,60.8 C425,63 425.7,64.6 427,65.6 C428.3,66.7 430,67.2 432.3,67.2 C434.8,67.2 436.7,66.6 438.2,65.4 C439.7,64.2 440.6,62.5 441.2,60.1 C441.5,58.7 441.7,55.7 441.7,51.1 C440.5,52.8 439.1,54.1 437.6,55 C436.1,55.9 434.4,56.3 432.5,56.3 C428.6,56.3 425.3,54.6 422.7,51.3 C419.7,47.4 418.2,42.3 418.2,35.8 C418.2,31.5 418.9,27.7 420.2,24.4 C421.5,21.2 423.2,18.8 425.4,17.3 C427.5,15.8 429.9,15 432.6,15 C434.5,15 436.3,15.5 437.9,16.4 C439.5,17.4 440.9,18.8 442.2,20.7 L442.2,15.9 L447.4,15.9 L447.4,51 C447.4,57.2 446.9,61.6 445.9,64.3 C444.9,67 443.2,69 440.9,70.6 C438.6,72.1 435.8,72.9 432.6,72.9 C428.3,72.9 425,71.7 422.7,69.4 C420.2,67 419.1,63.8 419.2,59.8 Z M423.8,35.5 C423.8,40.8 424.7,44.7 426.4,47.1 C428.2,49.5 430.3,50.8 432.8,50.8 C435.3,50.8 437.5,49.6 439.3,47.2 C441.1,44.8 442,41 442,35.8 C442,30.7 441.1,26.9 439.3,24.5 C437.5,22 435.3,20.8 432.6,20.8 C430.3,20.8 428.2,22 426.5,24.5 C424.7,27 423.8,30.7 423.8,35.5 Z" id="Shape" fill-rule="nonzero"></path><path d="M478.4,43.4 L484.2,44.3 C483.2,48.6 481.5,51.8 479,54 C476.5,56.2 473.4,57.3 469.6,57.3 C464.9,57.3 461.1,55.5 458.2,52 C455.3,48.4 453.9,43.3 453.9,36.6 C453.9,29.6 455.4,24.3 458.3,20.7 C461.2,17 464.9,15.2 469.4,15.2 C473.7,15.2 477.3,17 480.1,20.6 C483,24.2 484.4,29.4 484.4,36.2 L484.4,38 L459.7,38 C459.9,42.5 461,46 462.9,48.3 C464.8,50.6 467.1,51.8 469.7,51.8 C473.8,51.7 476.7,49 478.4,43.4 Z M459.9,32.4 L478.4,32.4 C478.1,28.9 477.4,26.3 476.2,24.6 C474.4,22.1 472.1,20.8 469.3,20.8 C466.8,20.8 464.7,21.8 462.9,23.9 C461.1,26 460.1,28.8 459.9,32.4 Z" id="Shape" fill-rule="nonzero"></path></g></g></g></g></svg> 